<?xml version="1.0" encoding="UTF-8" standalone="no"?>
<!-- Created with Inkscape (http://www.inkscape.org/) -->

<svg
   width="41.974159mm"
   height="41.974159mm"
   viewBox="0 0 41.974159 41.974159"
   version="1.1"
   id="svg1"
   xml:space="preserve"
   sodipodi:docname="appointech.svg"
   inkscape:version="1.3 (0e150ed6c4, 2023-07-21)"
   xmlns:inkscape="http://www.inkscape.org/namespaces/inkscape"
   xmlns:sodipodi="http://sodipodi.sourceforge.net/DTD/sodipodi-0.dtd"
   xmlns="http://www.w3.org/2000/svg"
   xmlns:svg="http://www.w3.org/2000/svg"><sodipodi:namedview
     id="namedview1"
     pagecolor="#ffffff"
     bordercolor="#000000"
     borderopacity="0.25"
     inkscape:showpageshadow="2"
     inkscape:pageopacity="0.0"
     inkscape:pagecheckerboard="0"
     inkscape:deskcolor="#d1d1d1"
     inkscape:document-units="mm"
     inkscape:zoom="0.77860553"
     inkscape:cx="243.38384"
     inkscape:cy="783.45192"
     inkscape:window-width="1896"
     inkscape:window-height="1026"
     inkscape:window-x="0"
     inkscape:window-y="0"
     inkscape:window-maximized="1"
     inkscape:current-layer="layer1" /><defs
     id="defs1" /><g
     inkscape:label="Layer 1"
     inkscape:groupmode="layer"
     id="layer1"
     transform="translate(-23.770777,-69.487735)"><g
       transform="matrix(0.0089742,7.6712898e-4,7.6712898e-4,-0.0089742,-43.555105,39.798889)"
       fill="#000000"
       stroke="none"
       id="g2"
       style="fill:#ffffff;fill-opacity:1;stroke-width:0.999231;stroke-dasharray:none"><rect
         style="fill:#330080;fill-opacity:1;stroke:#000000;stroke-width:0.999231;stroke-dasharray:none;stroke-opacity:1;paint-order:stroke fill markers"
         id="rect1-2-6"
         width="4503.7622"
         height="4503.7622"
         x="5824.9399"
         y="-2185.3733"
         ry="0"
         rx="611.05487"
         transform="matrix(0.99636635,0.08517099,0.08517099,-0.99636635,0,0)" /><path
         id="rect1-2"
         style="fill:#ffd42a;fill-opacity:1;stroke:#000000;stroke-width:0.999231;stroke-dasharray:none;stroke-opacity:1;paint-order:stroke fill markers"
         d="m 7117.8784,2801.8017 c 1.9975,-30.442 4.4702,-68.1314 8.339,-127.5542 5.0808,-78.0422 10.0362,-153.5265 10.9566,-167.5213 0.9201,-13.9948 5.8536,-89.5052 10.9344,-167.5474 5.0813,-78.0421 10.0366,-153.5265 10.9567,-167.5213 3.4903,-59.032 3.1332,-57.4 32.121,-109.1158 15.5145,-27.5698 39.5696,-70.4643 53.7233,-95.7516 14.1533,-25.2873 46.6358,-83.1145 72.0401,-128.3034 24.9936,-45.2788 48.044,-83.6712 50.6368,-85.6834 2.5024,-1.6019 14.615,-1.9704 26.7876,-0.5896 20.1513,2.2713 21.9749,1.8125 22.8151,-7.8978 0.851,-5.8361 6.0878,-33.5156 12.3031,-61.8357 7.2092,-34.5313 13.0897,-52.5078 22.3616,-72.2274 -5.3742,-2.4271 -10.358,-4.897 -14.1198,-7.2077 -0.039,-0.024 -0.045,-0.1458 -0.082,-0.1764 -9.5835,-4.4948 -24.4776,-18.3585 -24.9973,-26.019 -0.3307,-4.3746 2.8202,-99.2065 7.038,-210.5636 4.2186,-111.3569 7.5388,-204.8289 7.2578,-207.4717 -0.5106,-3.5537 -23.0716,-4.6372 -69.33,-3.6036 -37.5994,0.7829 -72.4628,0.8778 -77.3882,-0.2031 -10.2611,-2.2518 -9.5201,2.2133 -11.9479,-88.662 -1.9155,-69.68297 -10.2275,-106.34577 -29.5586,-126.07547 -23.8564,-24.5945 -58.0656,-29.548 -188.362,-25.8769 -59.2921,1.6149 -112.2729,2.0434 -118.4296,0.6924 -22.1633,-4.864 -36.0559,-33.7215 -41.4337,-85.6657 -3.7461,-37.8195 2.2288,-45.5382 56.2539,-74.1212 51.6128,-27.3914 93.3452,-62.5658 136.7776,-115.4136 50.52,-61.6174 54.7591,-69.2577 66.8688,-126.3983 10.4486,-47.6105 10.3698,-51.104 3.6596,-106.782 -10.6159,-84.9285 -27.9662,-190.2515 -52.2287,-316.893404 -17.5407,-92.0683003 -31.3904,-171.5122 -43.2288,-245.541496 -114.397,-51.8636 -233.8064,-107.8508 -364.1423,-171.7595 -193.2676,-94.9263 -461.9897,-238.381 -645.3611,-344.9469 l -139.2644,-72.3238 39.3426,-460.24673 c 5.6249,-65.8015 21.6453,-128.0544 45.8526,-185.6862 l 254.6818,127.5347 7.4378,3.8536 c 4.4061,2.2825 51.7292,23.7872 105.3297,48.1059 194.0422,88.4506 474.2619,228.82083 667.5471,334.50293 17.8481,-196.98703 54.5853,-382.08633 155.9796,-785.30493 6.0217,-24.1379 7.1141,-29.6123 12.0505,-49.5412 l 445.0653,38.0449 c -43.7521,183.1505 -69.3872,295.2706 -87.5056,391.5972 -67.4124,355.48373 -82.2453,482.13533 -73.8156,663.96483 195.5576,119.5829 342.0978,214.5737 486.9919,318.0765 67.7688,48.4201 175.8916,128.4823 183.3,135.7575 3.704,3.6374 0.872,10.7816 -19.6268,47.8772 l -24.1764,43.350696 504.5156,260.825304 c 38.444,19.8491 68.748,35.2262 109.453,56.201 121.634,-175.612904 201.462,-306.547004 294.354,-477.5257 96.971,-179.1939 130.635,-273.7666 212.372,-595.2585 33.659,-132.4518 80.728,-351.15083 150.177,-696.46663 l 452.8717,38.7122 c -2.282,7.5038 -2.723,11.6624 -5.102,18.9216 -26.083,81.6067 -50.3197,188.1236 -79.9217,352.4175 -20.615,115.50217 -86.907,435.23403 -105.983,512.35643 -61.11,245.1402 -160.642,504.650898 -265.753,691.522996 -51.996,92.705804 -133.639,216.809904 -239.937,367.436504 88.242,45.2268 214.954,110.605 268.253,137.7685 l 285.946,145.064 158.3817,51.0679 c 87.349,28.0409 192.3812,61.8119 233.8402,75.5448 l 75.784,24.6258 75.982,47.5085 c 22.349,13.8659 28.989,17.816 50.038,30.8696 l -32.031,374.70737 c -42.696,-15.9337 -98.542,-36.827 -155.262,-57.5522 -81.69,-29.8386 -133.2882,-50.5405 -142.4152,-56.9863 -7.947,-5.4046 -36.327,-26.9872 -63.346,-47.856 -67.72,-51.8331 -149.9637,-114.6206 -194.0447,-148.1934 -20.439,-15.3129 -58.607,-44.54227 -84.785,-64.54557 l -47.628,-36.6886 -560.366,-287.1102 c -31.339,45.6035 -52.583,77.8467 -76.452,115.6584 -64.492,103.7223 -74.687,132.4455 -69.088,199.0651 2.955,31.623 19.646,96.82377 36.075,139.57777 10.373,27.228 34.567,67.8054 71.438,119.3475 15.738,22.3825 18.181,28.9482 15.659,40.4405 -3.513,16.0068 -29.561,56.3115 -48.7,74.9121 -21.821,21.0232 -29.635,19.3154 -141.766,-36.2668 -114.503,-56.533 -145.684,-67.2608 -173.513,-60.0317 -18.219,4.6058 -36.91,17.2858 -51.675,35.5557 -3.954,4.2948 -22.144,38.1633 -40.872,74.4924 -18.407,36.8296 -36.085,68.2465 -38.588,69.8483 -5.005,3.2036 -56.821,-19.3839 -111.5897,-48.1812 -14.696,-7.527 -27.5233,-13.7806 -28.1142,-13.0498 -0.5006,0.3203 -36.2943,84.9875 -79.0929,187.8778 -43.2092,102.8003 -80.3701,191.8416 -83.0427,198.1383 -3.443,7.8485 -10.4745,12.352 -26.4615,16.5873 l -21.8369,5.5134 -9.131,51.3393 c -7.2208,39.7829 -15.2477,67.5053 -27.878,94.8637 l 0.1975,0.2347 12.0722,0.306 0.072,0.2965 c 2.851,-0.3855 6.7414,0.049 13.5633,1.5465 9.8504,2.1618 19.9814,6.9621 22.7243,10.1452 3.0636,3.6838 8.6024,50.9224 12.6194,105.1491 4.428,54.3168 11.507,143.6237 15.6645,199.1717 4.6581,55.2278 8.0313,104.5964 7.8615,109.2913 -0.5804,4.6049 -4.6015,17.0405 -9.1757,28.0824 -4.074,10.7214 -12.6313,32.0865 -18.6072,47.5531 -5.8852,15.0561 -14.8922,38.4605 -19.9172,51.5545 -5.0242,13.094 -32.1525,83.7306 -60.2178,156.7288 -28.0657,72.9982 -55.1677,143.6128 -60.1923,156.7068 -2.7082,7.0578 -23.4961,61.2104 -37.8077,98.3704 l -231.373,-19.7781 0.1883,-3.6135 c 0,0 77.8243,-76.7567 85.9407,-127.3086 12.838,-79.9578 -66.0581,-233.798 -66.0581,-233.798 0.7398,-13.1739 4.8374,-114.2103 11.1952,-278.4431 1.077,-28.3776 2.9768,-40.1575 4.7071,-55.347 l -1.3478,-0.9379 4.8277,-40.625 c -47.6968,0.958 -95.9209,-8.1632 -156.5758,-28.6041 -8.3492,-3.1229 -10.4704,-1.432 -16.0855,12.3929 -3.6232,8.6693 -19.9308,47.6783 -35.8254,86.7802 -15.8947,39.1019 -40.7472,99.4902 -55.2405,134.1674 0,0 -23.6941,115.2267 -65.4548,150.6191 -136.8803,116.0069 -99.9515,90.0186 -121.8754,150.8291 -19.7725,54.8455 11.0342,141.5674 -2.1727,174.8779 -6.2576,15.781 -7.9173,20.3862 -8.7565,22.8917 z m 849.0589,-1353.2638 14.1951,0.1004 60.0806,-107.2824 c 23.4927,-41.8897 37.8739,-68.4426 47.834,-88.5605 l 0.2888,-0.2656 0.7161,-1.5842 c 0.6686,-1.3583 1.0535,-2.4615 1.6758,-3.7524 l 61.4348,-136.7109 0.056,-0.092 23.5762,-41.7082 c 33.071,-58.5632 48.5535,-90.00737 51.9765,-105.60397 2.7923,-12.7235 12.0039,-33.071 20.6722,-47.0862 34.6731,-56.0606 192.9167,-281.1901 337.5077,-481.338 0.795,-1.0978 1.325,-1.8707 2.117,-2.9647 -161.617,-82.9441 -380.2051,-195.0164 -428.3088,-219.9271 l -160.4947,-82.6803 -16.6664,32.2089 c -9.1274,17.6248 -17.3639,31.8388 -18.3804,31.3123 -0.6777,-0.3509 -40.1044,-13.033 -87.1744,-28.382 C 7772.38,130.36273 7668.1809,93.441826 7563.17,54.116726 c 3.71,19.8928 6.9923,39.979 10.9105,59.754804 58.2968,295.0065 113.4699,594.5015 124.5859,679.1097 2.8842,22.143 2.9053,43.6442 -0.1571,57.5991 -3.3331,15.1861 -2.5518,48.8999 2.1163,108.0017 1.8452,22.8668 2.7059,28.9303 4.2809,45.87997 l -0.4263,-0.109 2.6884,110.9301 c -0.1265,0.5622 -0.2235,0.6958 -0.3512,1.2766 -5.084,25.1267 -4.623,48.4323 3.0706,148.637 0.6307,8.1483 0.6932,7.8804 1.2981,15.6695 l 0.045,1.4557 0.094,0.032 c 4.1571,53.5147 8.1299,105.0268 8.9251,108.1724 l 1.7958,16.9218 c 13.9284,-2.2026 27.9969,-3.9905 42.4033,-4.6506 44.2959,-1.8944 124.7019,14.054 162.6726,33.142 15.1965,7.2067 30.8362,12.3485 39.8155,12.5982 z" /><rect
         style="fill:#ffffff;fill-opacity:1;stroke:#000000;stroke-width:0.999231;stroke-dasharray:none;stroke-opacity:1;paint-order:stroke fill markers"
         id="rect1-2-6-5"
         width="4503.7622"
         height="4503.7622"
         x="22074.525"
         y="2829.6921"
         ry="0"
         rx="611.05487"
         transform="matrix(0.99636635,0.08517099,0.08517099,-0.99636635,0,0)" /><path
         id="rect1-2-4"
         style="fill:#000000;fill-opacity:1;stroke:#000000;stroke-width:0.999231;stroke-dasharray:none;stroke-opacity:1;paint-order:stroke fill markers"
         d="m 23735.558,-811.04734 c 1.997,-30.442 4.47,-68.1314 8.339,-127.5542 5.081,-78.04216 10.036,-153.52646 10.957,-167.52126 0.92,-13.9948 5.853,-89.5053 10.934,-167.5475 5.081,-78.0421 10.037,-153.5265 10.957,-167.5213 3.49,-59.032 3.133,-57.4 32.121,-109.1158 15.514,-27.5698 39.569,-70.4643 53.723,-95.7516 14.153,-25.2873 46.636,-83.1145 72.04,-128.3034 24.994,-45.2788 48.044,-83.6712 50.637,-85.6834 2.502,-1.6019 14.615,-1.9704 26.787,-0.5896 20.152,2.2713 21.975,1.8125 22.815,-7.8978 0.852,-5.8361 6.088,-33.5156 12.304,-61.8357 7.209,-34.5313 13.089,-52.5078 22.361,-72.2274 -5.374,-2.4271 -10.358,-4.897 -14.12,-7.2077 -0.04,-0.024 -0.05,-0.1458 -0.08,-0.1764 -9.583,-4.4948 -24.477,-18.3585 -24.997,-26.019 -0.331,-4.3746 2.82,-99.2065 7.038,-210.5636 4.219,-111.3569 7.539,-204.8289 7.258,-207.4717 -0.511,-3.5537 -23.072,-4.6372 -69.33,-3.6036 -37.6,0.7829 -72.463,0.8778 -77.388,-0.2031 -10.261,-2.2518 -9.52,2.2133 -11.948,-88.662 -1.916,-69.6829 -10.228,-106.3457 -29.559,-126.0754 -23.856,-24.5945 -58.065,-29.548 -188.362,-25.8769 -59.292,1.6149 -112.273,2.0434 -118.429,0.6924 -22.164,-4.864 -36.056,-33.7215 -41.434,-85.6657 -3.746,-37.8195 2.229,-45.5382 56.254,-74.1212 51.613,-27.3914 93.345,-62.5658 136.777,-115.4136 50.52,-61.6174 54.759,-69.2577 66.869,-126.3983 10.449,-47.6105 10.37,-51.104 3.66,-106.782 -10.616,-84.9285 -27.966,-190.2515 -52.229,-316.8934 -17.541,-92.0683 -31.39,-171.5122 -43.229,-245.5415 -114.397,-51.8636 -233.806,-107.8508 -364.142,-171.7595 -193.268,-94.9263 -461.99,-238.381 -645.361,-344.9469 l -139.265,-72.3238 39.343,-460.2468 c 5.625,-65.8015 21.645,-128.0544 45.852,-185.6862 l 254.682,127.5347 7.438,3.8536 c 4.406,2.2825 51.729,23.7872 105.33,48.1059 194.042,88.4506 474.262,228.8209 667.547,334.503 17.848,-196.9871 54.585,-382.0864 155.98,-785.305 6.021,-24.1379 7.114,-29.6123 12.05,-49.5412 l 445.066,38.0449 c -43.753,183.1505 -69.388,295.2706 -87.506,391.5972 -67.413,355.4838 -82.245,482.1354 -73.816,663.9649 195.558,119.5829 342.098,214.5737 486.992,318.0765 67.769,48.4201 175.892,128.4823 183.3,135.7575 3.704,3.6374 0.872,10.7816 -19.627,47.8772 l -24.176,43.3507 504.516,260.8253 c 38.444,19.8491 68.748,35.2262 109.453,56.201 121.634,-175.6129 201.462,-306.547 294.354,-477.5257 96.971,-179.1939 130.635,-273.7666 212.372,-595.2585 33.659,-132.4518 80.728,-351.1509 150.177,-696.4667 l 452.871,38.7122 c -2.282,7.5038 -2.723,11.6624 -5.102,18.9216 -26.083,81.6067 -50.319,188.1236 -79.921,352.4175 -20.615,115.5022 -86.907,435.2341 -105.983,512.3565 -61.11,245.1402 -160.642,504.6509 -265.753,691.523 -51.996,92.7058 -133.639,216.8099 -239.937,367.4365 88.242,45.2268 214.954,110.605 268.253,137.7685 l 285.946,145.064 158.381,51.0679 c 87.349,28.0409 192.381,61.8119 233.84,75.5448 l 75.784,24.6258 75.982,47.5085 c 22.349,13.8659 28.989,17.816 50.038,30.8696 l -32.031,374.7073 c -42.696,-15.9337 -98.542,-36.827 -155.262,-57.5522 -81.69,-29.8386 -133.288,-50.5405 -142.415,-56.9863 -7.947,-5.4046 -36.327,-26.9872 -63.346,-47.856 -67.72,-51.8331 -149.963,-114.6206 -194.044,-148.1934 -20.439,-15.3129 -58.607,-44.5422 -84.785,-64.5455 l -47.628,-36.6886 -560.366,-287.1102 c -31.339,45.6035 -52.583,77.8467 -76.452,115.6584 -64.492,103.7223 -74.687,132.4455 -69.088,199.0651 2.955,31.623 19.646,96.8237 36.075,139.5777 10.373,27.228 34.567,67.8054 71.438,119.3475 15.738,22.3825 18.181,28.9482 15.659,40.4405 -3.513,16.0068 -29.561,56.3115 -48.7,74.9121 -21.821,21.0232 -29.635,19.3154 -141.766,-36.2668 -114.503,-56.533 -145.684,-67.2608 -173.513,-60.0317 -18.219,4.6058 -36.91,17.2858 -51.675,35.5557 -3.954,4.2948 -22.144,38.1633 -40.872,74.4924 -18.407,36.8296 -36.085,68.2465 -38.588,69.8483 -5.005,3.2036 -56.821,-19.3839 -111.59,-48.1812 -14.696,-7.527 -27.523,-13.7806 -28.114,-13.0498 -0.501,0.3203 -36.295,84.9875 -79.093,187.8778 -43.209,102.8003 -80.37,191.8416 -83.043,198.1383 -3.443,7.8485 -10.474,12.352 -26.461,16.5873 l -21.837,5.5134 -9.131,51.3393 c -7.221,39.7829 -15.248,67.5053 -27.878,94.8637 l 0.197,0.2347 12.072,0.306 0.07,0.2965 c 2.851,-0.3855 6.742,0.049 13.564,1.5465 9.85,2.1618 19.981,6.9621 22.724,10.1452 3.064,3.6838 8.602,50.9224 12.619,105.1491 4.428,54.3168 11.507,143.6237 15.665,199.1717 4.658,55.2278 8.031,104.5964 7.861,109.2913 -0.58,4.6049 -4.601,17.0405 -9.175,28.0824 -4.074,10.7214 -12.632,32.0865 -18.608,47.5531 -5.885,15.0561 -14.892,38.4605 -19.917,51.5545 -5.024,13.094 -32.152,83.7307 -60.218,156.72886 -28.065,72.9982 -55.167,143.6128 -60.192,156.7068 -2.708,7.0578 -23.496,61.2104 -37.808,98.3704 l -231.373,-19.7781 0.189,-3.6135 c 0,0 77.824,-76.7567 85.94,-127.3086 12.838,-79.9578 -66.058,-233.79796 -66.058,-233.79796 0.74,-13.174 4.838,-114.2104 11.196,-278.4432 1.077,-28.3776 2.976,-40.1575 4.707,-55.347 l -1.348,-0.9379 4.828,-40.625 c -47.697,0.958 -95.921,-8.1632 -156.576,-28.6041 -8.349,-3.1229 -10.471,-1.432 -16.086,12.3929 -3.623,8.6693 -19.931,47.6783 -35.825,86.7802 -15.895,39.1019 -40.747,99.4902 -55.241,134.1674 0,0 -23.694,115.2267 -65.454,150.6191 -136.881,116.007 -99.952,90.0187 -121.876,150.82916 -19.772,54.8455 11.034,141.5674 -2.173,174.8779 -6.257,15.781 -7.917,20.3862 -8.756,22.8917 z m 849.059,-1353.26386 14.195,0.1004 60.081,-107.2824 c 23.492,-41.8897 37.873,-68.4426 47.834,-88.5605 l 0.288,-0.2656 0.716,-1.5842 c 0.669,-1.3583 1.054,-2.4615 1.676,-3.7524 l 61.435,-136.7109 0.06,-0.092 23.576,-41.7082 c 33.071,-58.5632 48.554,-90.0073 51.977,-105.6039 2.792,-12.7235 12.004,-33.071 20.672,-47.0862 34.673,-56.0606 192.917,-281.1901 337.508,-481.338 0.795,-1.0978 1.325,-1.8707 2.117,-2.9647 -161.617,-82.9441 -380.205,-195.0164 -428.309,-219.9271 l -160.495,-82.6803 -16.666,32.2089 c -9.128,17.6248 -17.364,31.8388 -18.381,31.3123 -0.677,-0.3509 -40.104,-13.033 -87.174,-28.382 -105.663,-33.8583 -209.863,-70.7792 -314.873,-110.1043 3.71,19.8928 6.992,39.979 10.91,59.7548 58.297,295.0065 113.47,594.5015 124.586,679.1097 2.884,22.143 2.905,43.6442 -0.157,57.5991 -3.333,15.1861 -2.552,48.8999 2.116,108.0017 1.845,22.8668 2.706,28.9303 4.281,45.88 l -0.426,-0.109 2.688,110.93 c -0.126,0.5622 -0.223,0.6958 -0.351,1.2766 -5.084,25.1267 -4.623,48.4323 3.071,148.637 0.63,8.1483 0.693,7.8804 1.298,15.6695 l 0.04,1.4557 0.09,0.032 c 4.157,53.5147 8.13,105.0268 8.925,108.1724 l 1.796,16.9218 c 13.928,-2.2026 27.996,-3.9905 42.403,-4.6506 44.296,-1.8944 124.702,14.054 162.672,33.142 15.197,7.2067 30.837,12.3485 39.816,12.5982 z" /><rect
         style="fill:#000000;fill-opacity:1;stroke:#000000;stroke-width:0.999231;stroke-dasharray:none;stroke-opacity:1;paint-order:stroke fill markers"
         id="rect1-2-6-5-4"
         width="4503.7622"
         height="4503.7622"
         x="17027.863"
         y="2963.4802"
         ry="0"
         rx="611.05487"
         transform="matrix(0.99636635,0.08517099,0.08517099,-0.99636635,0,0)" /><path
         id="rect1-2-4-5"
         style="fill:#ffffff;fill-opacity:1;stroke:#000000;stroke-width:0.999231;stroke-dasharray:none;stroke-opacity:1;paint-order:stroke fill markers"
         d="m 18718.628,-1374.1785 c 1.997,-30.442 4.47,-68.1314 8.339,-127.5542 5.081,-78.0422 10.036,-153.5265 10.957,-167.5213 0.92,-13.9948 5.853,-89.5052 10.934,-167.5474 5.081,-78.0421 10.037,-153.5265 10.957,-167.5213 3.49,-59.032 3.133,-57.4 32.121,-109.1158 15.514,-27.5698 39.569,-70.4643 53.723,-95.7516 14.153,-25.2873 46.636,-83.1145 72.04,-128.3034 24.994,-45.2788 48.044,-83.6712 50.637,-85.6834 2.502,-1.6019 14.615,-1.9704 26.787,-0.5896 20.152,2.2713 21.975,1.8125 22.815,-7.8978 0.852,-5.8361 6.088,-33.5156 12.304,-61.8357 7.209,-34.5313 13.089,-52.5078 22.361,-72.2274 -5.374,-2.4271 -10.358,-4.897 -14.12,-7.2077 -0.04,-0.024 -0.05,-0.1458 -0.08,-0.1764 -9.583,-4.4948 -24.477,-18.3585 -24.997,-26.019 -0.331,-4.3746 2.82,-99.2065 7.038,-210.5636 4.219,-111.3569 7.539,-204.8289 7.258,-207.4717 -0.511,-3.5537 -23.072,-4.6372 -69.33,-3.6036 -37.6,0.7829 -72.463,0.8778 -77.388,-0.2031 -10.261,-2.2518 -9.52,2.2133 -11.948,-88.662 -1.916,-69.6829 -10.228,-106.3457 -29.559,-126.0754 -23.856,-24.5945 -58.065,-29.548 -188.362,-25.8769 -59.292,1.6149 -112.273,2.0434 -118.429,0.6924 -22.164,-4.864 -36.056,-33.7215 -41.434,-85.6657 -3.746,-37.8195 2.229,-45.5382 56.254,-74.1212 51.613,-27.3914 93.345,-62.5658 136.777,-115.4136 50.52,-61.6174 54.759,-69.2577 66.869,-126.3983 10.449,-47.6105 10.37,-51.104 3.66,-106.782 -10.616,-84.9285 -27.966,-190.2515 -52.229,-316.8934 -17.541,-92.0683 -31.39,-171.5122 -43.229,-245.5415 -114.397,-51.8636 -233.806,-107.8508 -364.142,-171.7595 -193.268,-94.9263 -461.99,-238.381 -645.361,-344.9469 l -139.265,-72.3238 39.343,-460.2468 c 5.625,-65.8015 21.645,-128.0544 45.852,-185.6862 l 254.682,127.5347 7.438,3.8536 c 4.406,2.2825 51.729,23.7872 105.33,48.1059 194.042,88.4506 474.262,228.8209 667.547,334.503 17.848,-196.9871 54.585,-382.0864 155.98,-785.305 6.021,-24.1379 7.114,-29.6123 12.05,-49.5412 l 445.066,38.0449 c -43.753,183.1505 -69.388,295.2706 -87.506,391.5972 -67.413,355.4838 -82.245,482.1354 -73.816,663.9649 195.558,119.5829 342.098,214.5737 486.992,318.0765 67.769,48.4201 175.892,128.4823 183.3,135.7575 3.704,3.6374 0.872,10.7816 -19.627,47.8772 l -24.176,43.3507 504.516,260.8253 c 38.444,19.8491 68.748,35.2262 109.453,56.201 121.634,-175.6129 201.462,-306.547 294.354,-477.5257 96.971,-179.1939 130.635,-273.7666 212.372,-595.2585 33.659,-132.4518 80.728,-351.1509 150.177,-696.4667 l 452.871,38.7122 c -2.282,7.5038 -2.723,11.6624 -5.102,18.9216 -26.083,81.6067 -50.319,188.1236 -79.921,352.4175 -20.615,115.5022 -86.907,435.2341 -105.983,512.3565 -61.11,245.1402 -160.642,504.6509 -265.753,691.523 -51.996,92.7058 -133.639,216.8099 -239.937,367.4365 88.242,45.2268 214.954,110.605 268.253,137.7685 l 285.946,145.064 158.381,51.0679 c 87.349,28.0409 192.381,61.8119 233.84,75.5448 l 75.784,24.6258 75.982,47.5085 c 22.349,13.8659 28.989,17.816 50.038,30.8696 l -32.031,374.7073 c -42.696,-15.9337 -98.542,-36.827 -155.262,-57.5522 -81.69,-29.8386 -133.288,-50.5405 -142.415,-56.9863 -7.947,-5.4046 -36.327,-26.9872 -63.346,-47.856 -67.72,-51.8331 -149.963,-114.6206 -194.044,-148.1934 -20.439,-15.3129 -58.607,-44.5422 -84.785,-64.5455 l -47.628,-36.6886 -560.366,-287.1102 c -31.339,45.6035 -52.583,77.8467 -76.452,115.6584 -64.492,103.7223 -74.687,132.4455 -69.088,199.0651 2.955,31.623 19.646,96.8237 36.075,139.5777 10.373,27.228 34.567,67.8054 71.438,119.3475 15.738,22.3825 18.181,28.9482 15.659,40.4405 -3.513,16.0068 -29.561,56.3115 -48.7,74.9121 -21.821,21.0232 -29.635,19.3154 -141.766,-36.2668 -114.503,-56.533 -145.684,-67.2608 -173.513,-60.0317 -18.219,4.6058 -36.91,17.2858 -51.675,35.5557 -3.954,4.2948 -22.144,38.1633 -40.872,74.4924 -18.407,36.8296 -36.085,68.2465 -38.588,69.8483 -5.005,3.2036 -56.821,-19.3839 -111.59,-48.1812 -14.696,-7.527 -27.523,-13.7806 -28.114,-13.0498 -0.501,0.3203 -36.295,84.9875 -79.093,187.8778 -43.209,102.8003 -80.37,191.8416 -83.043,198.1383 -3.443,7.8485 -10.474,12.352 -26.461,16.5873 l -21.837,5.5134 -9.131,51.3393 c -7.221,39.7829 -15.248,67.5053 -27.878,94.8637 l 0.197,0.2347 12.072,0.306 0.07,0.2965 c 2.851,-0.3855 6.742,0.049 13.564,1.5465 9.85,2.1618 19.981,6.9621 22.724,10.1452 3.064,3.6838 8.602,50.9224 12.619,105.1491 4.428,54.3168 11.507,143.6237 15.665,199.1717 4.658,55.2278 8.031,104.5964 7.861,109.2913 -0.58,4.6049 -4.601,17.0405 -9.175,28.0824 -4.074,10.7214 -12.632,32.0865 -18.608,47.5531 -5.885,15.0561 -14.892,38.4605 -19.917,51.5545 -5.024,13.094 -32.152,83.7306 -60.218,156.7288 -28.065,72.9982 -55.167,143.6128 -60.192,156.7068 -2.708,7.0578 -23.496,61.2104 -37.808,98.3704 l -231.373,-19.7781 0.189,-3.6135 c 0,0 77.824,-76.7567 85.94,-127.3086 12.838,-79.9578 -66.058,-233.798 -66.058,-233.798 0.74,-13.1739 4.838,-114.2103 11.196,-278.4431 1.077,-28.3776 2.976,-40.1575 4.707,-55.347 l -1.348,-0.9379 4.828,-40.625 c -47.697,0.958 -95.921,-8.1632 -156.576,-28.6041 -8.349,-3.1229 -10.471,-1.432 -16.086,12.3929 -3.623,8.6693 -19.931,47.6783 -35.825,86.7802 -15.895,39.1019 -40.747,99.4902 -55.241,134.1674 0,0 -23.694,115.2267 -65.454,150.6191 -136.881,116.0069 -99.952,90.0186 -121.876,150.8291 -19.772,54.8455 11.034,141.5674 -2.173,174.8779 -6.257,15.781 -7.917,20.3862 -8.756,22.8917 z m 849.059,-1353.2638 14.195,0.1004 60.081,-107.2824 c 23.492,-41.8897 37.873,-68.4426 47.834,-88.5605 l 0.288,-0.2656 0.716,-1.5842 c 0.669,-1.3583 1.054,-2.4615 1.676,-3.7524 l 61.435,-136.7109 0.06,-0.092 23.576,-41.7082 c 33.071,-58.5632 48.554,-90.0073 51.977,-105.6039 2.792,-12.7235 12.004,-33.071 20.672,-47.0862 34.673,-56.0606 192.917,-281.1901 337.508,-481.338 0.795,-1.0978 1.325,-1.8707 2.117,-2.9647 -161.617,-82.9441 -380.205,-195.0164 -428.309,-219.9271 l -160.495,-82.6803 -16.666,32.2089 c -9.128,17.6248 -17.364,31.8388 -18.381,31.3123 -0.677,-0.3509 -40.104,-13.033 -87.174,-28.382 -105.663,-33.8583 -209.863,-70.7792 -314.873,-110.1043 3.71,19.8928 6.992,39.979 10.91,59.7548 58.297,295.0065 113.47,594.5015 124.586,679.1097 2.884,22.143 2.905,43.6442 -0.157,57.5991 -3.333,15.1861 -2.552,48.8999 2.116,108.0017 1.845,22.8668 2.706,28.9303 4.281,45.88 l -0.426,-0.109 2.688,110.93 c -0.126,0.5622 -0.223,0.6958 -0.351,1.2766 -5.084,25.1267 -4.623,48.4323 3.071,148.637 0.63,8.1483 0.693,7.8804 1.298,15.6695 l 0.04,1.4557 0.09,0.032 c 4.157,53.5147 8.13,105.0268 8.925,108.1724 l 1.796,16.9218 c 13.928,-2.2026 27.996,-3.9905 42.403,-4.6506 44.296,-1.8944 124.702,14.054 162.672,33.142 15.197,7.2067 30.837,12.3485 39.816,12.5982 z" /><rect
         style="fill:#ffffff;fill-opacity:1;stroke:#000000;stroke-width:0.999231;stroke-dasharray:none;stroke-opacity:1;paint-order:stroke fill markers"
         id="rect1-2-6-5-7"
         width="4503.7622"
         height="4503.7622"
         x="17550.611"
         y="-2372.3347"
         ry="0"
         rx="611.05487"
         transform="matrix(0.99636635,0.08517099,0.08517099,-0.99636635,0,0)" /><path
         id="rect1-2-4-4"
         style="fill:#ffffff;fill-opacity:1;stroke:#000000;stroke-width:0.999231;stroke-dasharray:none;stroke-opacity:1;paint-order:stroke fill markers"
         d="m 18785.019,3986.7708 c 1.997,-30.442 4.47,-68.1314 8.339,-127.5542 5.081,-78.0422 10.036,-153.5265 10.957,-167.5213 0.92,-13.9948 5.853,-89.5052 10.934,-167.5474 5.081,-78.0421 10.037,-153.5265 10.957,-167.5213 3.49,-59.032 3.133,-57.4 32.121,-109.1158 15.514,-27.5698 39.569,-70.4643 53.723,-95.7516 14.153,-25.2873 46.636,-83.1145 72.04,-128.3034 24.994,-45.2788 48.044,-83.6712 50.637,-85.6834 2.502,-1.6019 14.615,-1.9704 26.787,-0.5896 20.152,2.2713 21.975,1.8125 22.815,-7.8978 0.852,-5.8361 6.088,-33.5156 12.304,-61.8357 7.209,-34.5313 13.089,-52.5078 22.361,-72.2274 -5.374,-2.4271 -10.358,-4.897 -14.12,-7.2077 -0.04,-0.024 -0.05,-0.1458 -0.08,-0.1764 -9.583,-4.4948 -24.477,-18.3585 -24.997,-26.019 -0.331,-4.3746 2.82,-99.2065 7.038,-210.5636 4.219,-111.3569 7.539,-204.8289 7.258,-207.4717 -0.511,-3.5537 -23.072,-4.6372 -69.33,-3.6036 -37.6,0.7829 -72.463,0.8778 -77.388,-0.2031 -10.261,-2.2518 -9.52,2.2133 -11.948,-88.662 -1.916,-69.6829 -10.228,-106.3457 -29.559,-126.0754 -23.856,-24.5945 -58.065,-29.548 -188.362,-25.8769 -59.292,1.6149 -112.273,2.0434 -118.429,0.6924 -22.164,-4.864 -36.056,-33.7215 -41.434,-85.6657 -3.746,-37.8195 2.229,-45.5382 56.254,-74.1212 51.613,-27.3914 93.345,-62.5658 136.777,-115.4136 50.52,-61.6174 54.759,-69.2577 66.869,-126.3983 10.449,-47.6105 10.37,-51.104 3.66,-106.782 -10.616,-84.9285 -27.966,-190.2515 -52.229,-316.8934 -17.541,-92.0683 -31.39,-171.5122 -43.229,-245.5415 -114.397,-51.8636 -233.806,-107.8508 -364.142,-171.75947 -193.268,-94.9263 -461.99,-238.381 -645.361,-344.9469 l -139.265,-72.3238 39.343,-460.246799 c 5.625,-65.801508 21.645,-128.054411 45.852,-185.686211 l 254.682,127.534703 7.438,3.8536 c 4.406,2.2825 51.729,23.78721 105.33,48.105908 194.042,88.4506 474.262,228.820899 667.547,334.502999 17.848,-196.9871 54.585,-382.086407 155.98,-785.30501 6.021,-24.1379 7.114,-29.6123 12.05,-49.5412 l 445.066,38.0449 c -43.753,183.1505 -69.388,295.2706 -87.506,391.597203 -67.413,355.483807 -82.245,482.135407 -73.816,663.964907 195.558,119.5829 342.098,214.5737 486.992,318.07647 67.769,48.4201 175.892,128.4823 183.3,135.7575 3.704,3.6374 0.872,10.7816 -19.627,47.8772 l -24.176,43.3507 504.516,260.8253 c 38.444,19.8491 68.748,35.2262 109.453,56.201 121.634,-175.6129 201.462,-306.547 294.354,-477.5257 96.971,-179.19387 130.635,-273.76657 212.372,-595.25847 33.659,-132.4518 80.728,-351.1508989 150.177,-696.46671 l 452.871,38.7122 c -2.282,7.5038 -2.723,11.6624 -5.102,18.9216 -26.083,81.6067 -50.319,188.123603 -79.921,352.417511 -20.615,115.502199 -86.907,435.234099 -105.983,512.356499 -61.11,245.1402 -160.642,504.65087 -265.753,691.52297 -51.996,92.7058 -133.639,216.8099 -239.937,367.4365 88.242,45.2268 214.954,110.605 268.253,137.7685 l 285.946,145.064 158.381,51.0679 c 87.349,28.0409 192.381,61.8119 233.84,75.5448 l 75.784,24.6258 75.982,47.5085 c 22.349,13.8659 28.989,17.816 50.038,30.8696 l -32.031,374.7073 c -42.696,-15.9337 -98.542,-36.827 -155.262,-57.5522 -81.69,-29.8386 -133.288,-50.5405 -142.415,-56.9863 -7.947,-5.4046 -36.327,-26.9872 -63.346,-47.856 -67.72,-51.8331 -149.963,-114.6206 -194.044,-148.1934 -20.439,-15.3129 -58.607,-44.5422 -84.785,-64.5455 l -47.628,-36.6886 -560.366,-287.1102 c -31.339,45.6035 -52.583,77.8467 -76.452,115.6584 -64.492,103.7223 -74.687,132.4455 -69.088,199.0651 2.955,31.623 19.646,96.8237 36.075,139.5777 10.373,27.228 34.567,67.8054 71.438,119.3475 15.738,22.3825 18.181,28.9482 15.659,40.4405 -3.513,16.0068 -29.561,56.3115 -48.7,74.9121 -21.821,21.0232 -29.635,19.3154 -141.766,-36.2668 -114.503,-56.533 -145.684,-67.2608 -173.513,-60.0317 -18.219,4.6058 -36.91,17.2858 -51.675,35.5557 -3.954,4.2948 -22.144,38.1633 -40.872,74.4924 -18.407,36.8296 -36.085,68.2465 -38.588,69.8483 -5.005,3.2036 -56.821,-19.3839 -111.59,-48.1812 -14.696,-7.527 -27.523,-13.7806 -28.114,-13.0498 -0.501,0.3203 -36.295,84.9875 -79.093,187.8778 -43.209,102.8003 -80.37,191.8416 -83.043,198.1383 -3.443,7.8485 -10.474,12.352 -26.461,16.5873 l -21.837,5.5134 -9.131,51.3393 c -7.221,39.7829 -15.248,67.5053 -27.878,94.8637 l 0.197,0.2347 12.072,0.306 0.07,0.2965 c 2.851,-0.3855 6.742,0.049 13.564,1.5465 9.85,2.1618 19.981,6.9621 22.724,10.1452 3.064,3.6838 8.602,50.9224 12.619,105.1491 4.428,54.3168 11.507,143.6237 15.665,199.1717 4.658,55.2278 8.031,104.5964 7.861,109.2913 -0.58,4.6049 -4.601,17.0405 -9.175,28.0824 -4.074,10.7214 -12.632,32.0865 -18.608,47.5531 -5.885,15.0561 -14.892,38.4605 -19.917,51.5545 -5.024,13.094 -32.152,83.7306 -60.218,156.7288 -28.065,72.9982 -55.167,143.6128 -60.192,156.7068 -2.708,7.0578 -23.496,61.2104 -37.808,98.3704 l -231.373,-19.7781 0.189,-3.6135 c 0,0 77.824,-76.7567 85.94,-127.3086 12.838,-79.9578 -66.058,-233.798 -66.058,-233.798 0.74,-13.1739 4.838,-114.2103 11.196,-278.4431 1.077,-28.3776 2.976,-40.1575 4.707,-55.347 l -1.348,-0.9379 4.828,-40.625 c -47.697,0.958 -95.921,-8.1632 -156.576,-28.6041 -8.349,-3.1229 -10.471,-1.432 -16.086,12.3929 -3.623,8.6693 -19.931,47.6783 -35.825,86.7802 -15.895,39.1019 -40.747,99.4902 -55.241,134.1674 0,0 -23.694,115.2267 -65.454,150.6191 -136.881,116.0069 -99.952,90.0186 -121.876,150.8291 -19.772,54.8455 11.034,141.5674 -2.173,174.8779 -6.257,15.781 -7.917,20.3862 -8.756,22.8917 z m 849.059,-1353.2638 14.195,0.1004 60.081,-107.2824 c 23.492,-41.8897 37.873,-68.4426 47.834,-88.5605 l 0.288,-0.2656 0.716,-1.5842 c 0.669,-1.3583 1.054,-2.4615 1.676,-3.7524 l 61.435,-136.7109 0.06,-0.092 23.576,-41.7082 c 33.071,-58.5632 48.554,-90.0073 51.977,-105.6039 2.792,-12.7235 12.004,-33.071 20.672,-47.0862 34.673,-56.0606 192.917,-281.1901 337.508,-481.338 0.795,-1.0978 1.325,-1.8707 2.117,-2.9647 -161.617,-82.9441 -380.205,-195.0164 -428.309,-219.9271 l -160.495,-82.6803 -16.666,32.2089 c -9.128,17.6248 -17.364,31.8388 -18.381,31.3123 -0.677,-0.3509 -40.104,-13.033 -87.174,-28.382 -105.663,-33.8583 -209.863,-70.7792 -314.873,-110.1043 3.71,19.8928 6.992,39.979 10.91,59.7548 58.297,295.0065 113.47,594.5015 124.586,679.1097 2.884,22.143 2.905,43.6442 -0.157,57.5991 -3.333,15.1861 -2.552,48.8999 2.116,108.0017 1.845,22.8668 2.706,28.9303 4.281,45.88 l -0.426,-0.109 2.688,110.93 c -0.126,0.5622 -0.223,0.6958 -0.351,1.2766 -5.084,25.1267 -4.623,48.4323 3.071,148.637 0.63,8.1483 0.693,7.8804 1.298,15.6695 l 0.04,1.4557 0.09,0.032 c 4.157,53.5147 8.13,105.0268 8.925,108.1724 l 1.796,16.9218 c 13.928,-2.2026 27.996,-3.9905 42.403,-4.6506 44.296,-1.8944 124.702,14.054 162.672,33.142 15.197,7.2067 30.837,12.3485 39.816,12.5982 z" /><rect
         style="fill:#aca8b3;fill-opacity:1;stroke:#000000;stroke-width:156.435;stroke-dasharray:none;stroke-opacity:1;paint-order:stroke fill markers"
         id="rect1-2-6-53"
         width="4503.7622"
         height="4503.7622"
         x="7553.1279"
         y="3374.4521"
         ry="0"
         rx="611.05487"
         transform="matrix(0.99636635,0.08517099,0.08517099,-0.99636635,0,0)" /><path
         id="rect1-2-5"
         style="fill:#472183;fill-opacity:1;stroke:#000000;stroke-width:156.435;stroke-dasharray:none;stroke-opacity:1;paint-order:stroke fill markers"
         d="m 9313.323,-2590.6297 c 1.9975,-30.442 4.4702,-68.1314 8.339,-127.5542 5.0808,-78.0422 10.0362,-153.5265 10.9566,-167.5213 0.9201,-13.9948 5.8536,-89.5052 10.9344,-167.5474 5.0813,-78.0421 10.0366,-153.5265 10.9567,-167.5213 3.4903,-59.032 3.1332,-57.4 32.121,-109.1158 15.5145,-27.5698 39.5696,-70.4643 53.7233,-95.7516 14.1533,-25.2873 46.6358,-83.1145 72.0401,-128.3034 24.9936,-45.2788 48.044,-83.6712 50.6368,-85.6834 2.5024,-1.6019 14.615,-1.9704 26.7876,-0.5896 20.1513,2.2713 21.9749,1.8125 22.8151,-7.8978 0.851,-5.8361 6.0878,-33.5156 12.3031,-61.8357 7.2092,-34.5313 13.0897,-52.5078 22.3616,-72.2274 -5.3742,-2.4271 -10.358,-4.897 -14.1198,-7.2077 -0.039,-0.024 -0.045,-0.1458 -0.082,-0.1764 -9.5835,-4.4948 -24.4776,-18.3585 -24.9973,-26.019 -0.3307,-4.3746 2.8202,-99.2065 7.038,-210.5636 4.2186,-111.3569 7.5388,-204.8289 7.2578,-207.4717 -0.5106,-3.5537 -23.0716,-4.6372 -69.33,-3.6036 -37.5994,0.7829 -72.4628,0.8778 -77.3882,-0.2031 -10.2611,-2.2518 -9.5201,2.2133 -11.9479,-88.662 -1.9155,-69.6829 -10.2275,-106.3457 -29.5586,-126.0754 -23.8564,-24.5945 -58.0656,-29.548 -188.362,-25.8769 -59.2921,1.6149 -112.2729,2.0434 -118.4296,0.6924 -22.1633,-4.864 -36.0559,-33.7215 -41.4337,-85.6657 -3.7461,-37.8195 2.2288,-45.5382 56.2539,-74.1212 51.6128,-27.3914 93.3452,-62.5658 136.7776,-115.4136 50.52,-61.6174 54.7591,-69.2577 66.8688,-126.3983 10.4486,-47.6105 10.3698,-51.104 3.6596,-106.782 -10.6159,-84.9285 -27.9662,-190.2515 -52.2287,-316.8934 -17.5407,-92.0683 -31.3904,-171.5122 -43.2288,-245.5415 -114.397,-51.8636 -233.8064,-107.8508 -364.1423,-171.7595 -193.2676,-94.9263 -461.9897,-238.381 -645.3611,-344.9469 l -139.2644,-72.3238 39.3426,-460.2468 c 5.6249,-65.8015 21.6453,-128.0544 45.8526,-185.6862 l 254.6818,127.5347 7.4378,3.8536 c 4.4061,2.2825 51.7292,23.7872 105.3297,48.1059 194.0422,88.4506 474.2619,228.8209 667.5471,334.503 17.8481,-196.9871 54.5853,-382.0864 155.9796,-785.305 6.0217,-24.1379 7.1141,-29.6123 12.0505,-49.5412 l 445.0657,38.0449 c -43.753,183.1505 -69.388,295.2706 -87.506,391.5972 -67.412,355.4838 -82.2453,482.1354 -73.8156,663.9649 195.5576,119.5829 342.0976,214.5737 486.9916,318.0765 67.769,48.4201 175.892,128.4823 183.3,135.7575 3.704,3.6374 0.872,10.7816 -19.627,47.8772 l -24.176,43.3507 504.516,260.8253 c 38.444,19.8491 68.748,35.2262 109.453,56.201 121.634,-175.6129 201.462,-306.547 294.354,-477.5257 96.971,-179.1939 130.635,-273.7666 212.372,-595.2585 33.659,-132.4518 80.728,-351.1509 150.177,-696.4667 l 452.871,38.7122 c -2.282,7.5038 -2.723,11.6624 -5.102,18.9216 -26.083,81.6067 -50.319,188.1236 -79.921,352.4175 -20.615,115.5022 -86.907,435.2341 -105.983,512.3565 -61.11,245.1402 -160.642,504.6509 -265.753,691.523 -51.996,92.7058 -133.639,216.8099 -239.937,367.4365 88.242,45.2268 214.954,110.605 268.253,137.7685 l 285.946,145.064 158.381,51.0679 c 87.349,28.0409 192.381,61.8119 233.84,75.5448 l 75.784,24.6258 75.982,47.5085 c 22.349,13.8659 28.989,17.816 50.038,30.8696 l -32.031,374.7073 c -42.696,-15.9337 -98.542,-36.827 -155.262,-57.5522 -81.69,-29.8386 -133.288,-50.5405 -142.415,-56.9863 -7.947,-5.4046 -36.327,-26.9872 -63.346,-47.856 -67.72,-51.8331 -149.963,-114.6206 -194.044,-148.1934 -20.439,-15.3129 -58.607,-44.5422 -84.785,-64.5455 l -47.628,-36.6886 -560.366,-287.1102 c -31.339,45.6035 -52.583,77.8467 -76.452,115.6584 -64.492,103.7223 -74.687,132.4455 -69.088,199.0651 2.955,31.623 19.646,96.8237 36.075,139.5777 10.373,27.228 34.567,67.8054 71.438,119.3475 15.738,22.3825 18.181,28.9482 15.659,40.4405 -3.513,16.0068 -29.561,56.3115 -48.7,74.9121 -21.821,21.0232 -29.635,19.3154 -141.766,-36.2668 -114.503,-56.533 -145.684,-67.2608 -173.513,-60.0317 -18.219,4.6058 -36.91,17.2858 -51.675,35.5557 -3.954,4.2948 -22.144,38.1633 -40.872,74.4924 -18.407,36.8296 -36.085,68.2465 -38.588,69.8483 -5.005,3.2036 -56.821,-19.3839 -111.59,-48.1812 -14.696,-7.527 -27.523,-13.7806 -28.114,-13.0498 -0.501,0.3203 -36.295,84.9875 -79.093,187.8778 -43.209,102.8003 -80.37,191.8416 -83.043,198.1383 -3.443,7.8485 -10.474,12.352 -26.461,16.5873 l -21.837,5.5134 -9.131,51.3393 c -7.221,39.7829 -15.248,67.5053 -27.878,94.8637 l 0.197,0.2347 12.072,0.306 0.07,0.2965 c 2.851,-0.3855 6.742,0.049 13.564,1.5465 9.85,2.1618 19.981,6.9621 22.724,10.1452 3.064,3.6838 8.602,50.9224 12.619,105.1491 4.428,54.3168 11.507,143.6237 15.665,199.1717 4.658,55.2278 8.031,104.5964 7.861,109.2913 -0.58,4.6049 -4.601,17.0405 -9.175,28.0824 -4.074,10.7214 -12.632,32.0865 -18.607,47.5531 -5.886,15.0561 -14.893,38.4605 -19.918,51.5545 -5.024,13.094 -32.152,83.7306 -60.217,156.7288 -28.066,72.9982 -55.168,143.6128 -60.193,156.7068 -2.708,7.0578 -23.496,61.2104 -37.807,98.3704 l -231.373,-19.7781 0.188,-3.6135 c 0,0 77.824,-76.7567 85.941,-127.3086 12.838,-79.9578 -66.059,-233.798 -66.059,-233.798 0.74,-13.1739 4.838,-114.2103 11.196,-278.4431 1.077,-28.3776 2.976,-40.1575 4.707,-55.347 l -1.348,-0.9379 4.828,-40.625 c -47.697,0.958 -95.921,-8.1632 -156.576,-28.6041 -8.349,-3.1229 -10.471,-1.432 -16.086,12.3929 -3.623,8.6693 -19.93,47.6783 -35.825,86.7802 -15.895,39.1019 -40.747,99.4902 -55.241,134.1674 0,0 -23.694,115.2267 -65.4543,150.6191 -136.8803,116.0069 -99.9515,90.0186 -121.8754,150.8291 -19.7725,54.8455 11.0342,141.5674 -2.1727,174.8779 -6.2576,15.781 -7.9173,20.3862 -8.7565,22.8917 z m 849.059,-1353.2638 14.195,0.1004 60.081,-107.2824 c 23.492,-41.8897 37.874,-68.4426 47.834,-88.5605 l 0.288,-0.2656 0.717,-1.5842 c 0.668,-1.3583 1.053,-2.4615 1.675,-3.7524 l 61.435,-136.7109 0.06,-0.092 23.576,-41.7082 c 33.071,-58.5632 48.554,-90.0073 51.977,-105.6039 2.792,-12.7235 12.004,-33.071 20.672,-47.0862 34.673,-56.0606 192.917,-281.1901 337.508,-481.338 0.795,-1.0978 1.325,-1.8707 2.117,-2.9647 -161.617,-82.9441 -380.205,-195.0164 -428.309,-219.9271 l -160.495,-82.6803 -16.666,32.2089 c -9.128,17.6248 -17.364,31.8388 -18.381,31.3123 -0.677,-0.3509 -40.104,-13.033 -87.174,-28.382 -105.663,-33.8583 -209.862,-70.7792 -314.873,-110.1043 3.71,19.8928 6.992,39.979 10.91,59.7548 58.297,295.0065 113.47,594.5015 124.586,679.1097 2.884,22.143 2.905,43.6442 -0.157,57.5991 -3.333,15.1861 -2.552,48.8999 2.116,108.0017 1.845,22.8668 2.706,28.9303 4.281,45.88 l -0.426,-0.109 2.688,110.93 c -0.126,0.5622 -0.223,0.6958 -0.351,1.2766 -5.084,25.1267 -4.623,48.4323 3.071,148.637 0.63,8.1483 0.693,7.8804 1.298,15.6695 l 0.05,1.4557 0.09,0.032 c 4.157,53.5147 8.13,105.0268 8.925,108.1724 l 1.796,16.9218 c 13.928,-2.2026 27.997,-3.9905 42.403,-4.6506 44.296,-1.8944 124.702,14.054 162.673,33.142 15.196,7.2067 30.836,12.3485 39.815,12.5982 z" /></g></g></svg>
