<svg width="18" height="24" viewBox="0 0 18 24" fill="none" xmlns="http://www.w3.org/2000/svg">
<g clip-path="url(#clip0_9_162)">
<path d="M16.6391 20.0966L17.2357 22.8068C17.2698 22.9432 17.2527 23.071 17.1845 23.1903C17.1164 23.3097 17.0198 23.392 16.8948 23.4375L16.8095 23.4545C16.7641 23.4773 16.7044 23.4972 16.6306 23.5142C16.5567 23.5313 16.4658 23.5568 16.3578 23.5909C16.2499 23.625 16.1277 23.6563 15.9914 23.6847C15.855 23.7131 15.7101 23.7415 15.5567 23.7699C15.4033 23.7983 15.2328 23.8267 15.0453 23.8551C14.8578 23.8835 14.6675 23.9091 14.4743 23.9318C14.2811 23.9545 14.0737 23.9716 13.8521 23.983C13.6306 23.9943 13.4118 24 13.1959 24C10.5368 24 8.21294 23.2585 6.22431 21.7756C4.23567 20.2926 2.8834 18.2955 2.16749 15.7841H0.548171C0.400443 15.7841 0.272602 15.7301 0.164648 15.6222C0.0566933 15.5142 0.00271606 15.3864 0.00271606 15.2386V13.3125C0.00271606 13.1648 0.0566933 13.0369 0.164648 12.929C0.272602 12.821 0.400443 12.767 0.548171 12.767H1.67317C1.65044 12.1193 1.65613 11.5227 1.69022 10.9773H0.548171C0.38908 10.9773 0.258398 10.9261 0.156125 10.8239C0.0538524 10.7216 0.00271606 10.5909 0.00271606 10.4318V8.48864C0.00271606 8.32955 0.0538524 8.19886 0.156125 8.09659C0.258398 7.99432 0.38908 7.94318 0.548171 7.94318H2.21863C2.97999 5.55682 4.36351 3.63636 6.36919 2.18182C8.37488 0.727273 10.6504 0 13.1959 0C14.355 0 15.4573 0.130682 16.5027 0.392045C16.6277 0.426136 16.7414 0.511364 16.8436 0.647727C16.9118 0.772727 16.9289 0.909091 16.8948 1.05682L16.1618 3.76705C16.1277 3.91477 16.0482 4.02557 15.9232 4.09943C15.7982 4.1733 15.6618 4.1875 15.5141 4.14205L15.4459 4.125C15.4004 4.11364 15.3351 4.09943 15.2499 4.08239L14.9516 4.02273L14.5681 3.96307L14.1249 3.91193L13.6306 3.86932L13.1277 3.85227C11.6959 3.85227 10.4118 4.21591 9.27544 4.94318C8.13908 5.67045 7.28681 6.67045 6.71863 7.94318H14.6959C14.8777 7.94318 15.0198 8.01136 15.122 8.14773C15.2357 8.28409 15.2754 8.43182 15.2414 8.59091L14.8323 10.5341C14.7754 10.8295 14.5936 10.9773 14.2868 10.9773H5.96863C5.93453 11.3977 5.93453 11.9943 5.96863 12.767H13.7925C13.9629 12.767 14.105 12.8352 14.2186 12.9716C14.3209 13.108 14.355 13.2614 14.3209 13.4318L13.9118 15.3409C13.8891 15.4659 13.8266 15.571 13.7243 15.6563C13.622 15.7415 13.5084 15.7841 13.3834 15.7841H6.78681C7.33226 17.1136 8.18169 18.1676 9.3351 18.946C10.4885 19.7244 11.7868 20.1136 13.23 20.1136C13.4345 20.1136 13.6391 20.1051 13.8436 20.0881C14.0482 20.071 14.2385 20.0511 14.4146 20.0284C14.5908 20.0057 14.7584 19.9801 14.9175 19.9517C15.0766 19.9233 15.2158 19.8949 15.3351 19.8665C15.4544 19.8381 15.5595 19.8125 15.6504 19.7898L15.855 19.7386L15.9402 19.7045C16.0879 19.6477 16.2357 19.6591 16.3834 19.7386C16.5198 19.8182 16.605 19.9375 16.6391 20.0966Z" fill="#472183"/>
</g>
<defs>
<clipPath id="clip0_9_162">
<rect width="17.46" height="24" fill="white"/>
</clipPath>
</defs>
</svg>
