<svg width="24" height="24" viewBox="0 0 24 24" fill="none" xmlns="http://www.w3.org/2000/svg">
<path d="M3.29999 5.40002C3.0613 5.40002 2.83238 5.49485 2.6636 5.66363C2.49481 5.83241 2.39999 6.06133 2.39999 6.30002C2.39999 6.53872 2.49481 6.76764 2.6636 6.93642C2.83238 7.1052 3.0613 7.20002 3.29999 7.20002H20.7C20.9387 7.20002 21.1676 7.1052 21.3364 6.93642C21.5052 6.76764 21.6 6.53872 21.6 6.30002C21.6 6.06133 21.5052 5.83241 21.3364 5.66363C21.1676 5.49485 20.9387 5.40002 20.7 5.40002H3.29999ZM3.29999 9.00002C3.0613 9.00002 2.83238 9.09485 2.6636 9.26363C2.49481 9.43241 2.39999 9.66133 2.39999 9.90002C2.39999 10.1387 2.49481 10.3676 2.6636 10.5364C2.83238 10.7052 3.0613 10.8 3.29999 10.8H20.7C20.9387 10.8 21.1676 10.7052 21.3364 10.5364C21.5052 10.3676 21.6 10.1387 21.6 9.90002C21.6 9.66133 21.5052 9.43241 21.3364 9.26363C21.1676 9.09485 20.9387 9.00002 20.7 9.00002H3.29999ZM2.39999 13.5C2.39999 13.2613 2.49481 13.0324 2.6636 12.8636C2.83238 12.6948 3.0613 12.6 3.29999 12.6H20.7C20.9387 12.6 21.1676 12.6948 21.3364 12.8636C21.5052 13.0324 21.6 13.2613 21.6 13.5C21.6 13.7387 21.5052 13.9676 21.3364 14.1364C21.1676 14.3052 20.9387 14.4 20.7 14.4H3.29999C3.0613 14.4 2.83238 14.3052 2.6636 14.1364C2.49481 13.9676 2.39999 13.7387 2.39999 13.5ZM3.29999 16.2C3.0613 16.2 2.83238 16.2948 2.6636 16.4636C2.49481 16.6324 2.39999 16.8613 2.39999 17.1C2.39999 17.3387 2.49481 17.5676 2.6636 17.7364C2.83238 17.9052 3.0613 18 3.29999 18H14.7C14.9387 18 15.1676 17.9052 15.3364 17.7364C15.5052 17.5676 15.6 17.3387 15.6 17.1C15.6 16.8613 15.5052 16.6324 15.3364 16.4636C15.1676 16.2948 14.9387 16.2 14.7 16.2H3.29999Z" fill="#472183"/>
</svg>
